<svg width="40" height="40" viewBox="0 0 40 40" fill="none" xmlns="http://www.w3.org/2000/svg">
    <path d="M32.0845 7.94025V4H24.0203V7.9896H16.029V4H7.91553V7.94025H4V36H16.0044V32.0045C16.0058 30.9457 16.4274 29.9308 17.1766 29.1826C17.9258 28.4345 18.9412 28.0143 20 28.0143C21.0588 28.0143 22.0743 28.4345 22.8234 29.1826C23.5726 29.9308 23.9942 30.9457 23.9956 32.0045V36H36V7.94025H32.0845Z"
          fill="url(#paint0_linear)"/>
    <!-- 背景圆形 -->
    <circle cx="20" cy="20" r="19" fill="#FC6D26" />
    <!-- 狐狸头 -->
    <!-- 狐狸头 --> 10 C 15 10, 12 12, 12 15 C 12 18, 15 21, 20 21 C 25 21, 28 18, 28 15 C 28 12, 25 10, 20 10 Z" fill="white" />
    <path d="M20 10 C 15 10, 12 12, 12 15 C 12 18, 15 21, 20 21 C 25 21, 28 18, 28 15 C 28 12, 25 10, 20 10 Z" fill="white" />
    <circle cx="17" cy="15" r="2" fill="#FC6D26" />
    <circle cx="23" cy="15" r="2" fill="#FC6D26" />
    <circle cx="20" cy="20" r="6" fill="white" stroke="#FC6D26" stroke-width="1.5" />
    <!-- 齿轮 -->0 16 L 20 18 M 20 22 L 20 24 M 16 20 L 18 20 M 22 20 L 24 20" stroke="#FC6D26" stroke-width="1" />
    <circle cx="20" cy="20" r="6" fill="white" stroke="#FC6D26" stroke-width="1.5" />#FC6D26" stroke-width="1" />
    <path d="M20 16 L 20 18 M 20 22 L 20 24 M 16 20 L 18 20 M 22 20 L 24 20" stroke="#FC6D26" stroke-width="1" />
    <path d="M17 17 L 18 18 M 22 22 L 23 23 M 17 23 L 18 22 M 22 17 L 23 18" stroke="#FC6D26" stroke-width="1" />
</svg>